<svg xmlns="http://www.w3.org/2000/svg" width="25" height="19.837" viewBox="0 0 25 19.837">
  <path id="medium-m-brands" d="M17.162,68.047a.976.976,0,0,0-.315-.817l-2.331-2.812V64h7.246l5.6,12.286L32.29,64H39.2v.419l-2,1.912a.582.582,0,0,0-.222.558V80.947a.582.582,0,0,0,.222.558l1.949,1.912v.419h-9.8v-.419l2.021-1.959c.2-.2.2-.258.2-.558V69.541L25.948,83.8h-.76l-6.533-14.26V79.1a1.3,1.3,0,0,0,.362,1.1l2.626,3.184V83.8H14.2v-.413l2.626-3.189a1.259,1.259,0,0,0,.336-1.1Z" transform="translate(-14.2 -64)" fill="#fff"/>
</svg>
