<svg height="461.509" viewBox="0 0 494.958 461.509" width="494.958" xmlns="http://www.w3.org/2000/svg" xmlns:xlink="http://www.w3.org/1999/xlink"><linearGradient id="a" gradientUnits="objectBoundingBox" x1=".414" x2=".477" y1="1.268" y2=".022"><stop offset="0" stop-color="#0aaaf8"/><stop offset="1" stop-color="#0262d0"/></linearGradient><path d="m327.731-47.493c48.374 9.982 78.319 72.561 80.623 133.22s-22.654 119.015-53.749 175.835c-30.713 56.82-66.805 112.488-110.185 112.488-43.383.384-93.676-54.9-145.121-83.694-51.061-29.178-102.89-31.865-129-58.74s-26.49-77.552-12.285-120.167c13.824-42.615 42.234-77.168 76.019-89.837s72.561-3.455 125.542-19.964 119.782-59.123 168.156-49.141z" fill="url(#a)" opacity=".7" transform="matrix(-.9961947 -.08715574 .08715574 -.9961947 411.217 408.232)"/></svg>