<svg height="338" viewBox="0 0 445 338" width="445" xmlns="http://www.w3.org/2000/svg" xmlns:xlink="http://www.w3.org/1999/xlink"><clipPath id="a"><path d="m39 303h445v338h-445z"/></clipPath><linearGradient id="b" gradientUnits="objectBoundingBox" x1=".414" x2=".477" y1="1.268" y2=".022"><stop offset="0" stop-color="#0aaaf8"/><stop offset="1" stop-color="#0262d0"/></linearGradient><g clip-path="url(#a)" transform="translate(-39 -303)"><path d="m409.53-47.17c58.812 12.136 95.22 88.219 98.021 161.968s-27.539 144.7-65.347 213.779c-37.341 69.081-81.217 136.762-133.962 136.762-52.742.461-113.891-66.748-176.442-101.756-62.075-35.474-125.088-38.741-156.828-71.415s-32.207-94.287-14.936-146.1c16.8-51.811 51.344-93.82 92.42-109.223s88.219-4.2 152.632-24.272 145.63-71.879 204.442-59.743z" fill="url(#b)" opacity=".7" transform="matrix(-.469 -.883 .883 -.469 281.62 666.763)"/></g></svg>